# xmcd
#
# Track frame offsets:
#	150
#	14374
#	29688
#	43999
#	58181
#	72753
#	87524
#	104158
#	120827
#	137089
#
# Disc length: 2006 seconds
#
# Revision: 0
# Processed by: cddbd v1.5.2PL0 Copyright (c) Steve Scherf et al.
# Submitted via: audiograbber 1.83.01
#
DISCID=9107d40a
DTITLE=Glen Campbell - Rhinestone Cowboy
DYEAR=1975
DGENRE=Country
TTITLE0=Country Boy (You Got Your Feet in L.A.)
TTITLE1=Comeback
TTITLE2=Count on Me
TTITLE3=I Miss You Tonight
TTITLE4=My Girl
TTITLE5=Rhinestone Cowboy
TTITLE6=I'd Build a Bridge
TTITLE7=Pencils for Sale
TTITLE8=Marie
TTITLE9=We're Over
EXTD=
EXTT0=
EXTT1=
EXTT2=
EXTT3=
EXTT4=
EXTT5=
EXTT6=
EXTT7=
EXTT8=
EXTT9=
PLAYORDER=
